<svg width="94" height="94" viewBox="0 0 94 94" fill="none" xmlns="http://www.w3.org/2000/svg">
<path d="M75.6163 27.1046L55.2674 6.75581C54.686 6.17441 54.1046 5.88371 53.2325 5.88371H24.1628C20.9651 5.88371 18.3488 8.49999 18.3488 11.6977V81.4651C18.3488 84.6628 20.9651 87.2791 24.1628 87.2791H70.6744C73.8721 87.2791 76.4884 84.6628 76.4884 81.4651V29.1395C76.4884 28.2674 76.1977 27.686 75.6163 27.1046ZM53.2325 12.8605L69.5116 29.1395H53.2325V12.8605ZM70.6744 81.4651H24.1628V11.6977H47.4186V29.1395C47.4186 32.3372 50.0349 34.9535 53.2325 34.9535H70.6744V81.4651Z" fill="#F8F8F8"/>
<path d="M29.9767 64.0232H64.8605V69.8372H29.9767V64.0232ZM29.9767 46.5814H64.8605V52.3953H29.9767V46.5814Z" fill="#F8F8F8"/>
</svg>
